<?xml version="1.0" encoding="UTF-8" standalone="no"?>
<!-- Generator: Adobe Illustrator 17.0.0, SVG Export Plug-In . SVG Version: 6.00 Build 0)  -->

<svg
   xmlns:dc="http://purl.org/dc/elements/1.1/"
   xmlns:cc="http://creativecommons.org/ns#"
   xmlns:rdf="http://www.w3.org/1999/02/22-rdf-syntax-ns#"
   xmlns:svg="http://www.w3.org/2000/svg"
   xmlns="http://www.w3.org/2000/svg"
   xmlns:sodipodi="http://sodipodi.sourceforge.net/DTD/sodipodi-0.dtd"
   xmlns:inkscape="http://www.inkscape.org/namespaces/inkscape"
   id="Layer_1"
   xml:space="preserve"
   height="480"
   viewBox="0 0 480.00118 480.00118"
   width="480"
   version="1.1"
   y="0px"
   x="0px"
   enable-background="new 0 0 810.272 810.272"
   sodipodi:docname="room.svg"
   inkscape:version="0.92.1 r15371"><metadata
     id="metadata59"><rdf:RDF><cc:Work
         rdf:about=""><dc:format>image/svg+xml</dc:format><dc:type
           rdf:resource="http://purl.org/dc/dcmitype/StillImage" /><dc:title></dc:title></cc:Work></rdf:RDF></metadata><defs
     id="defs57" /><sodipodi:namedview
     pagecolor="#ffffff"
     bordercolor="#666666"
     borderopacity="1"
     objecttolerance="10"
     gridtolerance="10"
     guidetolerance="10"
     inkscape:pageopacity="0"
     inkscape:pageshadow="2"
     inkscape:window-width="1836"
     inkscape:window-height="1057"
     id="namedview55"
     showgrid="false"
     inkscape:zoom="0.58252186"
     inkscape:cx="-51.661411"
     inkscape:cy="243.41515"
     inkscape:window-x="76"
     inkscape:window-y="-8"
     inkscape:window-maximized="1"
     inkscape:current-layer="Layer_1"
     fit-margin-top="0"
     fit-margin-left="0"
     fit-margin-right="0"
     fit-margin-bottom="0" /><g
     stroke-miterlimit="10"
     id="g44"
     transform="matrix(0.72716212,0,0,0.72716212,-54.598961,-22.602365)"
     style="stroke-width:14;stroke-miterlimit:10"><line
       y2="684.15997"
       x1="687.52295"
       x2="118.853"
       y1="684.15997"
       id="line4"
       style="fill:none;stroke:#cccccc" /><g
       id="g14"
       transform="translate(-1.9470015)"
       style="fill:none;stroke:#cccccc"><path
         d="m 495.56,593.76 v -63.382 c 0,-1.832 1.485,-3.316 3.316,-3.316 h 148.81 c 1.832,0 3.319,1.484 3.319,3.316 v 63.382"
         id="path6"
         inkscape:connector-curvature="0" /><path
         d="m 460.19,684.16 v -90.61 c 0,-2.251 1.827,-4.076 4.078,-4.076 h 218.02 c 2.251,0 4.078,1.825 4.078,4.076 v 90.614"
         id="path8"
         inkscape:connector-curvature="0" /><line
         y2="648.59998"
         x1="462.91"
         x2="683.65002"
         y1="648.59998"
         id="line10" /><path
         d="m 621.24,584.31 v -23.131 c 0,-3.805 -3.085,-6.89 -6.89,-6.89 h -83.205 c -3.805,0 -6.89,3.085 -6.89,6.89 v 23.131"
         id="path12"
         inkscape:connector-curvature="0" /></g><g
       id="g24"
       transform="translate(-1.9470015)"
       style="fill:none;stroke:#cccccc"><path
         d="m 164.56,593.76 v -63.382 c 0,-1.832 1.485,-3.316 3.316,-3.316 h 148.81 c 1.832,0 3.319,1.484 3.319,3.316 v 63.382"
         id="path16"
         inkscape:connector-curvature="0" /><path
         d="m 129.19,684.16 v -90.61 c 0,-2.251 1.827,-4.076 4.078,-4.076 h 218.02 c 2.251,0 4.078,1.825 4.078,4.076 v 90.614"
         id="path18"
         inkscape:connector-curvature="0" /><line
         y2="648.59998"
         x1="131.91"
         x2="352.64999"
         y1="648.59998"
         id="line20" /><path
         d="m 290.24,584.31 v -23.131 c 0,-3.805 -3.085,-6.89 -6.891,-6.89 h -83.205 c -3.805,0 -6.89,3.085 -6.89,6.89 v 23.131"
         id="path22"
         inkscape:connector-curvature="0" /></g><g
       id="g32"
       transform="translate(-1.9470015)"
       style="fill:none;stroke:#cccccc"><path
         d="m 441.95,421.34 c 0,3.292 2.669,5.96 5.96,5.96 h 184.78 c 3.291,0 5.961,-2.669 5.961,-5.96 V 184.01 c 0,-3.292 -2.67,-5.96 -5.961,-5.96 H 447.91 c -3.291,0 -5.96,2.669 -5.96,5.96 z"
         id="path26"
         inkscape:connector-curvature="0" /><line
         y2="427.95001"
         x1="539.65002"
         x2="539.65002"
         y1="178.7"
         id="line28" /><line
         y2="302.67001"
         x1="638.65002"
         x2="441.95001"
         y1="302.67001"
         id="line30" /></g><g
       id="g38"
       transform="translate(-1.9470015)"
       style="fill:none;stroke:#cccccc"><path
         d="m 308.98,362.4 c 0,-21.944 -17.789,-39.734 -39.734,-39.734 -21.945,0 -39.734,17.79 -39.734,39.734 h 79.46 z"
         id="path34"
         inkscape:connector-curvature="0" /><line
         y2="31.108"
         x1="267.92999"
         x2="267.92999"
         y1="322.66"
         id="line36" /></g><line
       x1="374.453"
       y2="642.45001"
       x2="437.513"
       y1="642.45001"
       id="line40"
       style="fill:none;stroke:#cccccc;stroke-linejoin:round" /><path
       d="M 374.853,684.16 V 572.47 c 0,-3.961 3.21,-7.172 7.169,-7.172 h 47.936 c 3.959,0 7.169,3.211 7.169,7.172 v 111.69"
       id="path42"
       inkscape:connector-curvature="0"
       style="fill:none;stroke:#cccccc;stroke-linejoin:round" /></g><line
     x1="140.49135"
     y2="274.13797"
     x2="140.49135"
     stroke-miterlimit="10"
     y1="260.30734"
     id="line46"
     style="fill:none;stroke:#cccccc;stroke-width:10.18026924;stroke-linecap:round;stroke-linejoin:round;stroke-miterlimit:10" /><line
     x1="120.85071"
     y2="268.96057"
     x2="113.44821"
     stroke-miterlimit="10"
     y1="260.30734"
     id="line48"
     style="fill:none;stroke:#cccccc;stroke-width:10.18026924;stroke-linecap:round;stroke-linejoin:round;stroke-miterlimit:10" /><line
     x1="160.19017"
     y2="268.96057"
     x2="168.93065"
     stroke-miterlimit="10"
     y1="260.30734"
     id="line50"
     style="fill:none;stroke:#cccccc;stroke-width:10.18026924;stroke-linecap:round;stroke-linejoin:round;stroke-miterlimit:10" /></svg>