<?xml version="1.0" encoding="UTF-8" standalone="no"?>
<!-- Svg Vector Icons : http://www.onlinewebfonts.com/icon -->

<svg
   xmlns:dc="http://purl.org/dc/elements/1.1/"
   xmlns:cc="http://creativecommons.org/ns#"
   xmlns:rdf="http://www.w3.org/1999/02/22-rdf-syntax-ns#"
   xmlns:svg="http://www.w3.org/2000/svg"
   xmlns="http://www.w3.org/2000/svg"
   xmlns:sodipodi="http://sodipodi.sourceforge.net/DTD/sodipodi-0.dtd"
   xmlns:inkscape="http://www.inkscape.org/namespaces/inkscape"
   version="1.1"
   x="0px"
   y="0px"
   viewBox="0 0 2000 2000"
   enable-background="new 0 0 1000 1000"
   xml:space="preserve"
   id="svg8"
   sodipodi:docname="save.svg"
   width="2000"
   height="2000"
   inkscape:version="0.92.1 r15371"><defs
     id="defs12" /><sodipodi:namedview
     pagecolor="#ffffff"
     bordercolor="#666666"
     borderopacity="1"
     objecttolerance="10"
     gridtolerance="10"
     guidetolerance="10"
     inkscape:pageopacity="0"
     inkscape:pageshadow="2"
     inkscape:window-width="1836"
     inkscape:window-height="1057"
     id="namedview10"
     showgrid="false"
     inkscape:zoom="0.236"
     inkscape:cx="-33.898305"
     inkscape:cy="500"
     inkscape:window-x="76"
     inkscape:window-y="-8"
     inkscape:window-maximized="1"
     inkscape:current-layer="svg8" /><metadata
     id="metadata2"> Svg Vector Icons : http://www.onlinewebfonts.com/icon <rdf:RDF><cc:Work
     rdf:about=""><dc:format>image/svg+xml</dc:format><dc:type
       rdf:resource="http://purl.org/dc/dcmitype/StillImage" /><dc:title /></cc:Work></rdf:RDF></metadata><g
     id="g6"
     transform="translate(500,500)"
     style="fill:#ffffff"><path
       d="m 979.7,195.3 -175,-175 C 798.2,13.7 789.3,10 780,10 H 115 C 57.1,10 10,57.1 10,115 v 770 c 0,57.9 47.1,105 105,105 h 770 c 57.9,0 105,-47.1 105,-105 V 220 c 0,-9.3 -3.7,-18.2 -10.3,-24.7 z M 290,80 h 280 v 173.7 c 0,19.3 15.7,35 35,35 19.3,0 35,-15.7 35,-35 V 80 h 70 V 360 H 290 Z M 780,920 H 220 V 710 h 560 z m 140,-35 c 0,19.3 -15.7,35 -35,35 H 850 V 707.8 C 850,670.4 819.6,640 782.2,640 H 217.8 C 180.4,640 150,670.4 150,707.8 V 920 H 115 C 95.7,920 80,904.3 80,885 V 115 C 80,95.7 95.7,80 115,80 h 105 v 282.2 c 0,37.4 30.4,67.8 67.8,67.8 h 424.4 c 37.4,0 67.8,-30.4 67.8,-67.8 V 94.5 l 140,140 z"
       id="path4"
       inkscape:connector-curvature="0"
       style="fill:#ffffff" /></g></svg>