<?xml version="1.0" encoding="UTF-8" standalone="no"?>
<!-- Created with Inkscape (http://www.inkscape.org/) -->

<svg
   xmlns:dc="http://purl.org/dc/elements/1.1/"
   xmlns:cc="http://creativecommons.org/ns#"
   xmlns:rdf="http://www.w3.org/1999/02/22-rdf-syntax-ns#"
   xmlns:svg="http://www.w3.org/2000/svg"
   xmlns="http://www.w3.org/2000/svg"
   xmlns:sodipodi="http://sodipodi.sourceforge.net/DTD/sodipodi-0.dtd"
   xmlns:inkscape="http://www.inkscape.org/namespaces/inkscape"
   version="1.1"
   id="svg3680"
   width="1333.3333"
   height="1333.3333"
   viewBox="0 0 1333.3333 1333.3333"
   sodipodi:docname="stoplight.svg"
   inkscape:version="0.92.1 r15371">
  <metadata
     id="metadata3686">
    <rdf:RDF>
      <cc:Work
         rdf:about="">
        <dc:format>image/svg+xml</dc:format>
        <dc:type
           rdf:resource="http://purl.org/dc/dcmitype/StillImage" />
        <dc:title></dc:title>
      </cc:Work>
    </rdf:RDF>
  </metadata>
  <defs
     id="defs3684" />
  <sodipodi:namedview
     pagecolor="#ffffff"
     bordercolor="#666666"
     borderopacity="1"
     objecttolerance="10"
     gridtolerance="10"
     guidetolerance="10"
     inkscape:pageopacity="0"
     inkscape:pageshadow="2"
     inkscape:window-width="1836"
     inkscape:window-height="1057"
     id="namedview3682"
     showgrid="false"
     inkscape:zoom="0.96201883"
     inkscape:cx="404.84823"
     inkscape:cy="507.04841"
     inkscape:window-x="76"
     inkscape:window-y="-8"
     inkscape:window-maximized="1"
     inkscape:current-layer="svg3680" />
  <g
     id="g3754">
    <path
       style="fill:#f3e158;stroke-width:1.33333325"
       d="M 0,666.66665 V 0 H 666.66665 1333.3333 V 666.66665 1333.3333 H 666.66665 0 Z"
       id="path3778"
       inkscape:connector-curvature="0" />
    <path
       style="fill:#e8d654;stroke-width:1.33333325"
       d="M 0,666.66665 V 0 H 666.66665 1333.3333 V 666.66665 1333.3333 H 666.66665 0 Z m 666.66665,-16 v -82.66666 l -5,0.0197 c -8.07207,0.0319 -21.55799,3.74196 -32.19049,8.85599 -13.90455,6.68781 -29.89167,22.6153 -36.59409,36.45763 -6.4568,13.335 -8.88614,23.55415 -8.86238,37.28014 0.0347,20.04237 6.33466,37.82638 18.84036,53.18398 13.67632,16.7952 37.57276,29.1799 56.8066,29.4409 l 7,0.095 z"
       id="path3776"
       inkscape:connector-curvature="0" />
    <path
       style="fill:#e8613b;stroke-width:1.33333325"
       d="M 0,666.66665 V 0 H 666.66665 1333.3333 V 666.66665 1333.3333 H 666.66665 0 Z m 693.11278,64.93051 c 26.31796,-9.17252 45.99197,-28.94483 54.37284,-54.6445 2.95427,-9.0592 3.58708,-13.48822 3.66044,-25.61934 0.15015,-24.82739 -7.15453,-42.38487 -24.98861,-60.06251 -17.98007,-17.82234 -35.33552,-24.97466 -60.82413,-25.06614 -11.91714,-0.0428 -15.58504,0.4984 -24.65387,3.63738 -34.51936,11.94818 -56.85153,40.81807 -58.91164,76.15793 -2.35696,40.43232 24.07547,76.61124 63.85288,87.39749 13.69523,3.71368 33.86501,2.94908 47.49209,-1.80031 z"
       id="path3774"
       inkscape:connector-curvature="0" />
    <path
       style="fill:#dc5c39;stroke-width:1.33333325"
       d="M 0,666.66665 V 0 H 666.66665 1333.3333 V 666.66665 1333.3333 H 666.66665 0 Z m 693.11278,64.93051 c 26.31796,-9.17252 45.99197,-28.94483 54.37284,-54.6445 2.95427,-9.0592 3.58708,-13.48822 3.66044,-25.61934 0.15015,-24.82739 -7.15453,-42.38487 -24.98861,-60.06251 -17.98007,-17.82234 -35.33552,-24.97466 -60.82413,-25.06614 -11.91714,-0.0428 -15.58504,0.4984 -24.65387,3.63738 -34.51936,11.94818 -56.85153,40.81807 -58.91164,76.15793 -2.35696,40.43232 24.07547,76.61124 63.85288,87.39749 13.69523,3.71368 33.86501,2.94908 47.49209,-1.80031 z M 666.66665,395.80754 v -82.85912 l -9.72184,0.73527 c -19.25049,1.4559 -41.78876,13.63546 -54.34716,29.36893 -12.33952,15.45924 -18.54361,33.15873 -18.57796,53.00057 -0.0237,13.74132 2.4097,23.96267 8.87556,37.28013 6.0947,12.55299 22.32961,29.2801 34.70701,35.75924 9.45172,4.94764 25.0781,9.39289 33.39772,9.50068 l 5.66667,0.0734 z"
       id="path3772"
       inkscape:connector-curvature="0" />
    <path
       style="fill:#0091ce;stroke-width:1.33333325"
       d="M 0,666.66665 V 0 H 666.66665 1333.3333 V 666.66665 1333.3333 H 666.66665 0 Z m 693.11278,64.93051 c 26.31796,-9.17252 45.99197,-28.94483 54.37284,-54.6445 2.95427,-9.0592 3.58708,-13.48822 3.66044,-25.61934 0.15015,-24.82739 -7.15453,-42.38487 -24.98861,-60.06251 -17.98007,-17.82234 -35.33552,-24.97466 -60.82413,-25.06614 -11.91714,-0.0428 -15.58504,0.4984 -24.65387,3.63738 -34.51936,11.94818 -56.85153,40.81807 -58.91164,76.15793 -2.35696,40.43232 24.07547,76.61124 63.85288,87.39749 13.69523,3.71368 33.86501,2.94908 47.49209,-1.80031 z m -9.45096,-252.37403 c 32.19686,-6.65045 57.56239,-30.85018 65.70424,-62.68449 10.77276,-42.1211 -13.4506,-86.87086 -54.95702,-101.52651 -14.21052,-5.01764 -35.17624,-5.75992 -49.75092,-1.76142 -15.95208,4.37639 -25.17094,9.88395 -38.03895,22.72533 -17.43504,17.39899 -25.22276,35.73154 -25.26614,59.47734 -0.0847,46.37149 37.8005,85.19397 83.70317,85.77394 4.61425,0.0583 12.98678,-0.84359 18.60562,-2.00419 z"
       id="path3770"
       inkscape:connector-curvature="0" />
    <path
       style="fill:#62a548;stroke-width:1.33333325"
       d="m 643.47597,1331.2242 c -0.44513,-1.1599 -0.80372,-35.8099 -0.79687,-77 l 0.0124,-74.8909 -69.66422,-69.5249 c -38.31533,-38.2387 -70.06112,-70.9387 -70.54621,-72.6667 -0.48508,-1.7279 -0.94179,-16.0878 -1.01488,-31.9107 l -0.13291,-28.76904 -8.15897,-18.56432 c -30.37168,-69.10542 -57.27304,-154.41451 -51.87417,-164.50238 2.67732,-5.00261 24.24845,-9.36891 46.36647,-9.38521 l 13.66667,-0.0101 v -31.22996 -31.22996 l -7.46737,-17.10337 C 463.81847,635.61554 437.32987,553.10264 440.82,539.19682 c 1.30683,-5.20677 17.86986,-9.187 44.49075,-10.69146 l 16.02253,-0.90551 v -31.60519 -31.60517 l -6.17424,-13.19477 C 472.73784,403.2791 443.14395,318.2035 438.70036,288.88901 c -1.33454,-8.80408 -1.27265,-10.83448 0.40854,-13.40028 2.97282,-4.53711 18.81361,-7.6946 42.60959,-8.49323 l 19.71852,-0.66179 1.92152,-3.7158 c 4.03398,-7.80084 7.66075,-9.28458 22.69475,-9.28458 h 13.69365 l 1.7932,-5.62863 c 1.31864,-4.13908 3.2928,-6.63235 7.45986,-9.42145 3.11666,-2.08607 5.66666,-4.65146 5.66666,-5.70088 0,-3.61048 9.37187,-12.27226 18.34464,-16.95468 11.16762,-5.82782 26.28446,-10.60539 43.65536,-13.79696 19.33219,-3.55193 80.71021,-3.58732 100,-0.0576 27.96062,5.11625 50.51214,14.89896 58.8569,25.53174 2.09536,2.6699 8.4447,9.61854 14.1096,15.44143 l 10.29984,10.58708 h 10.96555 10.96555 l 6.07602,6.47179 6.07603,6.47177 19.32525,0.77645 c 12.07327,0.48508 22.82768,1.69372 28.65859,3.2208 l 9.33333,2.44435 220.99999,221.32073 221,221.32071 v 308.98672 308.9867 h -344.524 c -312.93085,0 -344.59822,-0.1934 -345.33333,-2.1091 z m 49.63681,-599.62704 c 26.31796,-9.17252 45.99197,-28.94483 54.37284,-54.6445 2.95427,-9.0592 3.58708,-13.48822 3.66044,-25.61934 0.15015,-24.82739 -7.15453,-42.38487 -24.98861,-60.06251 -17.98007,-17.82234 -35.33552,-24.97466 -60.82413,-25.06614 -11.91714,-0.0428 -15.58504,0.4984 -24.65387,3.63738 -34.51936,11.94818 -56.85153,40.81807 -58.91164,76.15793 -2.35696,40.43232 24.07547,76.61124 63.85288,87.39749 13.69523,3.71368 33.86501,2.94908 47.49209,-1.80031 z m -9.45096,-252.37403 c 32.19686,-6.65045 57.56239,-30.85018 65.70424,-62.68449 10.77276,-42.1211 -13.4506,-86.87086 -54.95702,-101.52651 -14.21052,-5.01764 -35.17624,-5.75992 -49.75092,-1.76142 -15.95208,4.37639 -25.17094,9.88395 -38.03895,22.72533 -17.43504,17.39899 -25.22276,35.73154 -25.26614,59.47734 -0.0847,46.37149 37.8005,85.19397 83.70317,85.77394 4.61425,0.0583 12.98678,-0.84359 18.60562,-2.00419 z"
       id="path3768"
       inkscape:connector-curvature="0" />
    <path
       style="fill:#5d9b45;stroke-width:1.33333325"
       d="m 643.47597,1331.2242 c -0.44513,-1.1599 -0.80372,-35.8099 -0.79687,-77 l 0.0124,-74.8909 -69.66422,-69.5249 c -38.31533,-38.2387 -70.06112,-70.9387 -70.54621,-72.6667 -0.48508,-1.7279 -0.94179,-16.0878 -1.01488,-31.9107 l -0.13291,-28.76904 -8.15897,-18.56432 c -30.37168,-69.10542 -57.27304,-154.41451 -51.87417,-164.50238 2.67732,-5.00261 24.24845,-9.36891 46.36647,-9.38521 l 13.66667,-0.0101 v -31.22996 -31.22996 l -7.46737,-17.10337 C 463.81847,635.61554 437.32987,553.10264 440.82,539.19682 c 1.30683,-5.20677 17.86986,-9.187 44.49075,-10.69146 l 16.02253,-0.90551 v -31.60519 -31.60517 l -6.17424,-13.19477 C 472.73784,403.2791 443.14395,318.2035 438.70036,288.88901 c -1.33454,-8.80408 -1.27265,-10.83448 0.40854,-13.40028 2.97282,-4.53711 18.81361,-7.6946 42.60959,-8.49323 l 19.71852,-0.66179 1.92152,-3.7158 c 4.03398,-7.80084 7.66075,-9.28458 22.69475,-9.28458 h 13.69365 l 1.7932,-5.62863 c 1.31864,-4.13908 3.2928,-6.63235 7.45986,-9.42145 3.11666,-2.08607 5.66666,-4.65146 5.66666,-5.70088 0,-3.61048 9.37187,-12.27226 18.34464,-16.95468 11.16762,-5.82782 26.28446,-10.60539 43.65536,-13.79696 19.33219,-3.55193 80.71021,-3.58732 100,-0.0576 27.96062,5.11625 50.51214,14.89896 58.8569,25.53174 2.09536,2.6699 8.4447,9.61854 14.1096,15.44143 l 10.29984,10.58708 h 10.96555 10.96555 l 6.07602,6.47179 6.07603,6.47177 19.32525,0.77645 c 12.07327,0.48508 22.82768,1.69372 28.65859,3.2208 l 9.33333,2.44435 220.99999,221.32073 221,221.32071 v 308.98672 308.9867 h -344.524 c -312.93085,0 -344.59822,-0.1934 -345.33333,-2.1091 z m 23.19068,-425.22422 v -83.33333 h -5.12005 c -7.75003,0 -24.77827,4.76742 -33.35375,9.33812 -23.47812,12.5137 -39.33498,34.79142 -43.85822,61.61751 -1.82702,10.83552 -1.8303,13.41618 -0.0311,24.42591 4.40849,26.97592 20.2714,49.35881 43.91014,61.95813 8.83259,4.70772 24.5614,9.14702 32.78626,9.25358 l 5.66669,0.0734 z m 26.5462,-173.47428 c 21.24752,-7.13256 39.17675,-22.24629 49.13434,-41.41858 7.16856,-13.80231 9.65279,-23.98528 9.65279,-39.5673 0,-16.50788 -1.70252,-24.34309 -8.30191,-38.2065 -4.40876,-9.26155 -7.49448,-13.42853 -16.87987,-22.7948 -12.44024,-12.41488 -23.98832,-19.21397 -39.48488,-23.24728 -10.91406,-2.84061 -31.13972,-2.83873 -42,0.004 -26.53548,6.94555 -49.7966,27.79169 -59.26209,53.10952 -12.22572,32.70077 -4.55548,66.81712 20.64201,91.81313 11.76876,11.67465 26.0389,19.50288 41.95341,23.01453 12.95747,2.85916 31.28296,1.74571 44.5462,-2.70661 z m -9.55103,-253.30257 c 32.19686,-6.65045 57.56239,-30.85018 65.70424,-62.68449 10.77276,-42.1211 -13.4506,-86.87086 -54.95702,-101.52651 -14.21052,-5.01764 -35.17624,-5.75992 -49.75092,-1.76142 -15.95208,4.37639 -25.17094,9.88395 -38.03895,22.72533 -17.43504,17.39899 -25.22276,35.73154 -25.26614,59.47734 -0.0847,46.37149 37.8005,85.19397 83.70317,85.77394 4.61425,0.0583 12.98678,-0.84359 18.60562,-2.00419 z"
       id="path3766"
       inkscape:connector-curvature="0" />
    <path
       style="fill:#0074a4;stroke-width:1.33333325"
       d="m 643.47597,1331.2242 c -0.44513,-1.1599 -0.80372,-35.8099 -0.79687,-77 l 0.0124,-74.8909 -69.66422,-69.5249 c -38.31533,-38.2387 -70.06112,-70.9387 -70.54621,-72.6667 -0.48508,-1.7279 -0.94179,-16.0878 -1.01488,-31.9107 l -0.13291,-28.76904 -8.15897,-18.56432 c -30.37168,-69.10542 -57.27304,-154.41451 -51.87417,-164.50238 2.67732,-5.00261 24.24845,-9.36891 46.36647,-9.38521 l 13.66667,-0.0101 v -31.22996 -31.22996 l -7.46737,-17.10337 C 463.81847,635.61554 437.32987,553.10264 440.82,539.19682 c 1.30683,-5.20677 17.86986,-9.187 44.49075,-10.69146 l 16.02253,-0.90551 v -31.60519 -31.60517 l -6.17424,-13.19477 C 472.73784,403.2791 443.14395,318.2035 438.70036,288.88901 c -1.33454,-8.80408 -1.27265,-10.83448 0.40854,-13.40028 2.97282,-4.53711 18.81361,-7.6946 42.60959,-8.49323 l 19.71852,-0.66179 1.92152,-3.7158 c 4.03398,-7.80084 7.66075,-9.28458 22.69475,-9.28458 h 13.69365 l 1.7932,-5.62863 c 1.31864,-4.13908 3.2928,-6.63235 7.45986,-9.42145 3.11666,-2.08607 5.66666,-4.65146 5.66666,-5.70088 0,-3.61048 9.37187,-12.27226 18.34464,-16.95468 11.16762,-5.82782 26.28446,-10.60539 43.65536,-13.79696 19.33219,-3.55193 80.71021,-3.58732 100,-0.0576 27.96062,5.11625 50.51214,14.89896 58.8569,25.53174 2.09536,2.6699 8.4447,9.61854 14.1096,15.44143 l 10.29984,10.58708 h 10.96555 10.96555 l 6.07602,6.47179 6.07603,6.47177 19.32525,0.77645 c 12.07327,0.48508 22.82768,1.69372 28.65859,3.2208 l 9.33333,2.44435 220.99999,221.32073 221,221.32071 v 308.98672 308.9867 h -344.524 c -312.93085,0 -344.59822,-0.1934 -345.33333,-2.1091 z m 43.85735,-342.68724 c 22.71477,-5.3877 44.68525,-23.12478 55.16685,-44.53698 12.51369,-25.56344 12.51369,-50.43656 0,-76 -10.45827,-21.36453 -31.87443,-38.58913 -55.45731,-44.60323 -9.9448,-2.53612 -30.5727,-2.86856 -39.75101,-0.64062 -16.94965,4.11432 -35.19019,15.49357 -46.27675,28.86948 -35.22677,42.50097 -21.51633,105.88463 28.34864,131.05639 17.52382,8.84599 37.04623,10.81778 57.96958,5.85496 z m -2.66667,-253.20278 c 24.45031,-5.11578 48.35012,-23.75184 59.08992,-46.07577 10.39348,-21.60408 11.99982,-43.59808 4.75949,-65.16668 -10.87413,-32.39346 -37.87453,-54.45908 -71.99236,-58.83452 -57.76214,-7.40769 -106.54478,45.96028 -94.52458,103.40944 6.48535,30.99593 32.30433,57.77004 63.62157,65.97513 11.7234,3.07152 26.42889,3.33229 39.04596,0.6924 z m -1.00483,-256.11105 c 32.19686,-6.65045 57.56239,-30.85018 65.70424,-62.68449 10.77276,-42.1211 -13.4506,-86.87086 -54.95702,-101.52651 -14.21052,-5.01764 -35.17624,-5.75992 -49.75092,-1.76142 -15.95208,4.37639 -25.17094,9.88395 -38.03895,22.72533 -17.43504,17.39899 -25.22276,35.73154 -25.26614,59.47734 -0.0847,46.37149 37.8005,85.19397 83.70317,85.77394 4.61425,0.0583 12.98678,-0.84359 18.60562,-2.00419 z"
       id="path3764"
       inkscape:connector-curvature="0" />
    <path
       style="fill:#52615f;stroke-width:1.33333325"
       d="m 643.8589,1247.6666 c -0.0776,-47.1166 -0.5276,-104.9919 -1,-128.6116 l -0.85892,-42.945 -5.66666,-5.7721 c -5.30616,-5.405 -5.66667,-6.2477 -5.66667,-13.2457 0,-5.5849 -0.53297,-7.6781 -2.10905,-8.2829 -1.15998,-0.4451 -27.61998,-0.8093 -58.8,-0.8093 h -56.69095 l -4.53333,-4.5334 -4.53333,-4.5333 v -30.569 -30.569 l -8.14215,-18.56432 c -16.66236,-37.99066 -32.57613,-80.59847 -42.54014,-113.89767 -10.71766,-35.81784 -13.038,-50.64245 -8.31771,-53.1415 4.76967,-2.52522 25.18122,-5.79439 41.496,-6.64614 l 16.83733,-0.87902 0.35796,-31.02122 0.35796,-31.02119 -7.5246,-16.9788 c -11.92372,-26.90511 -26.72068,-65.30991 -36.58982,-94.96718 -14.63667,-43.98385 -20.0799,-69.35155 -15.66686,-73.01405 3.5085,-2.91178 21.45098,-5.93449 40.39869,-6.80582 l 18.66667,-0.8584 0.35808,-31.92823 0.35808,-31.92822 -7.90921,-17.40511 c -21.51503,-47.3462 -46.02084,-115.8917 -53.45509,-149.51993 -3.37555,-15.26904 -3.47474,-22.70213 -0.32543,-24.38759 5.2656,-2.81806 24.73236,-5.77365 42.66421,-6.47758 18.34592,-0.72019 19.05091,-0.8541 19.77948,-3.75696 0.41552,-1.65559 2.25201,-4.41706 4.08108,-6.1366 2.96501,-2.78747 4.93509,-3.19872 18.17045,-3.79311 l 14.84487,-0.66667 0.83731,-4.11638 c 1.15057,-5.6565 2.0417,-6.83348 8.04158,-10.62103 2.8717,-1.81283 5.22126,-4.18679 5.22126,-5.27547 0,-3.6666 9.29014,-12.30084 18.34464,-17.04949 10.52516,-5.51995 27.61618,-10.62427 46.32202,-13.83428 19.51849,-3.34946 71.86324,-3.32836 91.96009,0.0371 35.12011,5.88126 59.30749,17.15836 64.69417,30.16296 0.89788,2.1677 2.6731,4.27153 3.94491,4.67518 3.49289,1.10862 8.46393,6.93554 10.01773,11.74255 l 1.3831,4.27889 14.19526,0.66667 c 15.34082,0.72047 17.94246,1.86452 21.97548,9.66352 1.85131,3.58003 2.18319,3.66981 13.56514,3.66981 22.00861,0 47.34842,4.45375 50.59409,8.89246 1.13824,1.55664 1.41586,4.511 0.84977,9.04308 -3.40305,27.24481 -32.09769,110.83793 -54.71578,159.39779 l -7.76296,16.66667 -0.3944,33.66666 -0.3944,33.66667 9.0439,0.0107 c 21.58868,0.0261 48.77971,5.09173 51.15501,9.53004 5.2569,9.82257 -22.87677,98.16406 -52.78693,165.7543 l -7.37256,16.66031 0.35752,31.68886 0.35752,31.68915 18.66667,0.83858 c 19.82017,0.89042 36.6754,4.0273 40.11353,7.46543 1.61499,1.61497 1.88192,3.61373 1.18721,8.88969 -3.61369,27.4447 -25.86381,94.30959 -49.03342,147.35276 l -10.82708,24.78687 -0.72012,32.23816 c -0.6704,30.0123 -0.91285,32.4978 -3.51167,36 -4.95876,6.6824 -7.44998,6.9388 -68.20845,7.02 l -56.33333,0.075 v 7.6162 c 0,7.1657 -0.33515,7.9577 -5.66667,13.3894 l -5.66666,5.7732 -0.86674,42.944 c -0.4767,23.6191 -0.9267,81.4939 -1,128.6105 l -0.13333,85.6667 h -22.66667 -22.66666 l -0.14108,-85.6667 z m 43.47442,-259.12964 c 22.71477,-5.3877 44.68525,-23.12478 55.16685,-44.53698 12.51369,-25.56344 12.51369,-50.43656 0,-76 -10.45827,-21.36453 -31.87443,-38.58913 -55.45731,-44.60323 -9.9448,-2.53612 -30.5727,-2.86856 -39.75101,-0.64062 -16.94965,4.11432 -35.19019,15.49357 -46.27675,28.86948 -35.22677,42.50097 -21.51633,105.88463 28.34864,131.05639 17.52382,8.84599 37.04623,10.81778 57.96958,5.85496 z m -2.66667,-253.20278 c 24.45031,-5.11578 48.35012,-23.75184 59.08992,-46.07577 10.39348,-21.60408 11.99982,-43.59808 4.75949,-65.16668 -10.87413,-32.39346 -37.87453,-54.45908 -71.99236,-58.83452 -57.76214,-7.40769 -106.54478,45.96028 -94.52458,103.40944 6.48535,30.99593 32.30433,57.77004 63.62157,65.97513 11.7234,3.07152 26.42889,3.33229 39.04596,0.6924 z m -1.00483,-256.11105 c 32.19686,-6.65045 57.56239,-30.85018 65.70424,-62.68449 10.77276,-42.1211 -13.4506,-86.87086 -54.95702,-101.52651 -14.21052,-5.01764 -35.17624,-5.75992 -49.75092,-1.76142 -15.95208,4.37639 -25.17094,9.88395 -38.03895,22.72533 -17.43504,17.39899 -25.22276,35.73154 -25.26614,59.47734 -0.0847,46.37149 37.8005,85.19397 83.70317,85.77394 4.61425,0.0583 12.98678,-0.84359 18.60562,-2.00419 z"
       id="path3762"
       inkscape:connector-curvature="0" />
    <path
       style="fill:#384f67;stroke-width:1.33333325"
       d="m 643.8589,1247.6666 c -0.0776,-47.1166 -0.5276,-104.9919 -1,-128.6116 l -0.85892,-42.945 -5.66666,-5.7721 c -5.30616,-5.405 -5.66667,-6.2477 -5.66667,-13.2457 0,-5.5849 -0.53297,-7.6781 -2.10905,-8.2829 -1.15998,-0.4451 -27.61998,-0.8093 -58.8,-0.8093 h -56.69095 l -4.53333,-4.5334 -4.53333,-4.5333 v -30.569 -30.569 l -8.14215,-18.56432 c -16.66236,-37.99066 -32.57613,-80.59847 -42.54014,-113.89767 -10.71766,-35.81784 -13.038,-50.64245 -8.31771,-53.1415 4.76967,-2.52522 25.18122,-5.79439 41.496,-6.64614 l 16.83733,-0.87902 0.35796,-31.02122 0.35796,-31.02119 -7.5246,-16.9788 c -11.92372,-26.90511 -26.72068,-65.30991 -36.58982,-94.96718 -14.63667,-43.98385 -20.0799,-69.35155 -15.66686,-73.01405 3.5085,-2.91178 21.45098,-5.93449 40.39869,-6.80582 l 18.66667,-0.8584 0.35808,-31.92823 0.35808,-31.92822 -7.90921,-17.40511 c -21.51503,-47.3462 -46.02084,-115.8917 -53.45509,-149.51993 -3.37555,-15.26904 -3.47474,-22.70213 -0.32543,-24.38759 5.2656,-2.81806 24.73236,-5.77365 42.66421,-6.47758 18.34592,-0.72019 19.05091,-0.8541 19.77948,-3.75696 0.41552,-1.65559 2.25201,-4.41706 4.08108,-6.1366 2.96501,-2.78747 4.93509,-3.19872 18.17045,-3.79311 l 14.84487,-0.66667 0.83731,-4.11638 c 1.15057,-5.6565 2.0417,-6.83348 8.04158,-10.62103 2.8717,-1.81283 5.22126,-4.18679 5.22126,-5.27547 0,-3.6666 9.29014,-12.30084 18.34464,-17.04949 10.52516,-5.51995 27.61618,-10.62427 46.32202,-13.83428 19.51849,-3.34946 71.86324,-3.32836 91.96009,0.0371 35.12011,5.88126 59.30749,17.15836 64.69417,30.16296 0.89788,2.1677 2.6731,4.27153 3.94491,4.67518 3.49289,1.10862 8.46393,6.93554 10.01773,11.74255 l 1.3831,4.27889 14.19526,0.66667 c 15.34082,0.72047 17.94246,1.86452 21.97548,9.66352 1.85131,3.58003 2.18319,3.66981 13.56514,3.66981 22.00861,0 47.34842,4.45375 50.59409,8.89246 1.13824,1.55664 1.41586,4.511 0.84977,9.04308 -3.40305,27.24481 -32.09769,110.83793 -54.71578,159.39779 l -7.76296,16.66667 -0.3944,33.66666 -0.3944,33.66667 9.0439,0.0107 c 21.58868,0.0261 48.77971,5.09173 51.15501,9.53004 5.2569,9.82257 -22.87677,98.16406 -52.78693,165.7543 l -7.37256,16.66031 0.35752,31.68886 0.35752,31.68915 18.66667,0.83858 c 19.82017,0.89042 36.6754,4.0273 40.11353,7.46543 1.61499,1.61497 1.88192,3.61373 1.18721,8.88969 -3.61369,27.4447 -25.86381,94.30959 -49.03342,147.35276 l -10.82708,24.78687 -0.72012,32.23816 c -0.6704,30.0123 -0.91285,32.4978 -3.51167,36 -4.95876,6.6824 -7.44998,6.9388 -68.20845,7.02 l -56.33333,0.075 v 7.6162 c 0,7.1657 -0.33515,7.9577 -5.66667,13.3894 l -5.66666,5.7732 -0.86674,42.944 c -0.4767,23.6191 -0.9267,81.4939 -1,128.6105 l -0.13333,85.6667 h -22.66667 -22.66666 l -0.14108,-85.6667 z m 39.86396,-256.42144 c 5.65242,-1.14848 15.31178,-4.5066 21.46523,-7.46249 21.52816,-10.34129 40.63094,-34.07256 46.0987,-57.26808 2.58559,-10.96869 2.60155,-30.43017 0.0332,-40.56781 -8.27756,-32.67355 -35.16234,-58.60173 -67.59719,-65.19199 -13.75698,-2.7952 -25.17472,-2.63076 -37.57691,0.54119 -39.49905,10.10216 -66.55342,44.53485 -66.55342,84.704 0,40.10069 26.78698,74.35196 66.23767,84.69501 11.78038,3.08853 24.49142,3.27309 37.89266,0.55017 z m 10.72326,-256.92442 c 34.95864,-12.3875 57.78743,-42.56532 59.87259,-79.14668 2.30207,-40.38704 -24.23873,-77.21361 -64.38843,-89.34185 -5.70704,-1.72396 -12.41588,-2.40144 -23.9303,-2.41656 -14.13172,-0.0185 -17.24402,0.41502 -26.65386,3.71318 -14.31646,5.01792 -24.92946,11.69036 -35.34614,22.22226 -16.06337,16.24107 -23.97103,34.19172 -25.03443,56.82889 -1.24986,26.60612 6.94572,47.90238 25.62947,66.59843 8.45031,8.45587 13.20994,11.97393 22.08816,16.32644 16.7125,8.1932 23.25915,9.6139 41.98347,9.11098 13.09724,-0.3518 17.77421,-1.05845 25.77947,-3.89509 z m -17.5521,-251.64539 c 35.07131,-4.55711 63.52719,-28.67279 73.95531,-62.67536 3.88557,-12.66953 4.16716,-33.57499 0.62714,-46.56005 -6.8273,-25.04308 -24.08521,-45.44789 -48.19006,-56.97736 -38.66023,-18.49135 -85.58532,-5.44747 -109.42876,30.41817 -12.85178,19.33187 -17.9403,44.66332 -13.3488,66.45257 3.5349,16.77502 11.3996,30.83812 24.69149,44.15155 9.35982,9.37498 13.54838,12.4772 22.79964,16.88637 6.23334,2.9708 14.63334,6.04671 18.66667,6.83532 4.03333,0.78861 8.53333,1.67015 10,1.95897 4.68764,0.9231 10.41997,0.78418 20.22737,-0.49018 z"
       id="path3760"
       inkscape:connector-curvature="0" />
    <path
       style="fill:#293b4c;stroke-width:1.33333325"
       d="m 645.04017,1275.5863 c 0.20543,-31.7614 -0.14939,-89.6919 -0.78851,-128.7345 l -1.16201,-70.9865 -5.54484,-5.6498 c -5.2818,-5.3818 -5.54483,-6.0359 -5.54483,-13.79 0,-6.1928 -0.50454,-8.3338 -2.10905,-8.9495 -1.15997,-0.4452 -27.59941,-0.8094 -58.75432,-0.8094 -36.0598,0 -57.5714,-0.4956 -59.19372,-1.3639 -5.33632,-2.8559 -5.91886,-6.2397 -6.65142,-38.6361 l -0.70852,-31.33329 -7.69652,-16.57803 C 472.25824,905.70706 443.21698,818.01471 444.25851,799.84119 l 0.40815,-7.1218 10,-2.43853 c 5.8374,-1.42347 18.32519,-2.82199 29.99999,-3.35971 l 20,-0.92117 0.37262,-32 c 0.34392,-29.53552 0.17414,-32.3594 -2.20435,-36.66666 -4.18852,-7.58506 -20.47252,-46.8777 -29.83887,-72 -16.84549,-45.18272 -27.24829,-80.43168 -28.58446,-96.85592 -0.70361,-8.64873 -0.52519,-9.65613 1.94443,-10.97783 4.44773,-2.38036 25.26866,-5.475 40.9773,-6.0905 8.06667,-0.31607 15.41667,-0.61242 16.33333,-0.65855 1.28558,-0.0647 1.66667,-7.53265 1.66667,-32.65972 v -32.57585 l -5.27901,-10.57923 C 475.47935,405.68714 440.45291,302.38097 441.59184,282.50787 l 0.40815,-7.1218 10,-2.43468 c 6.32185,-1.53917 17.75005,-2.7227 31.07053,-3.21774 l 21.07053,-0.78307 2.54816,-4.9948 c 3.2855,-6.44009 7.71964,-7.95579 23.27467,-7.95579 h 12.23263 l 1.90174,-6.29754 c 1.43602,-4.75534 3.16483,-7.14834 7.05954,-9.77176 2.83678,-1.91083 5.91082,-5.26516 6.83118,-7.45407 5.75628,-13.69017 35.3825,-25.45625 75.15633,-29.84843 19.15582,-2.11534 67.37262,-1.02606 82.70979,1.86852 28.41221,5.36224 46.78465,12.83639 55.9228,22.75011 3.05548,3.31481 5.55542,6.80389 5.55542,7.75351 0,0.94962 1.97144,2.78828 4.38098,4.0859 4.97458,2.67899 7.70648,6.43899 8.89833,12.2471 l 0.82083,4 13.94993,0.66666 c 15.56291,0.74375 18.41269,1.841 22.4196,8.63222 l 2.77373,4.70112 h 15.14335 c 15.29993,0 37.48058,2.9508 43.61325,5.80209 4.66688,2.1698 4.80127,6.97088 0.70623,25.22936 -7.9273,35.34526 -35.63559,111.74145 -56.63421,156.14958 l -5.40535,11.43129 0.0204,29.69383 c 0.0107,16.33161 0.46123,30.36029 1,31.17485 0.59463,0.89899 8.05331,1.76956 18.97959,2.21527 17.31468,0.70631 34.68214,3.45769 40.08797,6.3508 3.29974,1.76597 3.29562,6.39159 -0.0196,21.95292 -7.0345,33.01928 -34.02075,108.87865 -54.19675,152.34909 l -5.87161,12.65079 v 28.39101 c 0,15.61505 0.36419,29.34008 0.80932,30.50005 0.62049,1.61697 2.78592,2.10905 9.28104,2.10905 12.32401,0 34.21032,2.5935 43.69072,5.17728 l 8.21892,2.23998 -0.1284,7.95804 c -0.0707,4.37692 -1.77479,14.55804 -3.787,22.6247 -8.19479,32.85164 -33.69848,103.13745 -51.48752,141.89483 l -6.59708,14.37312 v 30.01754 30.0175 l -3.51515,3.5152 -3.51516,3.5151 H 762.7515 c -43.50304,0 -58.6226,0.4045 -59.81818,1.6 -0.88,0.88 -1.6,4.8629 -1.6,8.8509 0,6.5729 -0.48536,7.7775 -5.19024,12.8817 l -5.19024,5.6307 -0.83358,15.185 c -0.45846,8.3518 -0.97285,66.3333 -1.14309,128.8479 l -0.30952,113.6628 h -22 -22 l 0.37352,-57.748 z m 50.29315,-255.3081 c 14.40241,-3.9422 25.2012,-8.8342 37.36126,-16.9252 25.00449,-16.63741 43.44532,-44.23392 49.38968,-73.91116 2.74753,-13.717 2.01085,-41.71546 -1.42367,-54.10853 -11.52369,-41.58198 -45.53956,-74.23922 -87.49162,-83.99712 -62.46575,-14.5293 -121.7522,20.42387 -140.70505,82.95467 -3.16496,10.44209 -3.54899,13.87329 -3.54899,31.70912 0,17.9175 0.37584,21.24093 3.60947,31.91781 13.30911,43.94427 47.22391,75.32471 91.56717,84.72451 9.48817,2.0113 40.48036,0.5814 51.24175,-2.3641 z m -0.93154,-255.01905 c 43.6202,-10.14801 78.20667,-45.94673 87.61864,-90.68965 2.58376,-12.28281 2.52391,-34.69321 -0.1272,-47.62573 -7.4298,-36.24357 -31.97825,-67.00248 -66.10186,-82.82484 -19.56571,-9.07218 -45.42028,-13.33305 -64.777,-10.67534 -47.76656,6.55842 -86.49412,40.92698 -99.28233,88.10755 -4.19476,15.47602 -4.1531,43.45679 0.088,59.11551 12.29114,45.38055 49.11234,78.9779 95.72629,87.34506 9.35878,1.6799 34.03374,0.23035 46.85546,-2.75256 z m -8.4018,-253.42148 c 44.38294,-7.13703 81.48275,-40.48451 94.32224,-84.78236 2.60192,-8.97695 3.00205,-13.37823 2.9446,-32.38865 -0.0619,-20.45836 -0.32965,-22.79418 -3.82211,-33.33334 -16.49405,-49.77409 -55.91106,-79.79395 -109.44473,-83.35273 -53.1744,-3.53489 -103.54347,33.97956 -118.17995,88.0194 -4.24111,15.65872 -4.28278,43.63949 -0.088,59.11551 11.28368,41.62975 41.90542,72.85375 83.19178,84.82797 15.63319,4.53405 31.09407,5.10744 51.07619,1.8942 z"
       id="path3758"
       inkscape:connector-curvature="0" />
    <path
       style="fill:#202e3d;stroke-width:1.33333325"
       d="m 646.35212,1257.667 c 0.19368,-41.6169 -0.11587,-99.8012 -0.68795,-129.2986 l -1.04008,-53.6316 -5.64539,-5.7522 c -5.13494,-5.2321 -5.64538,-6.3616 -5.64538,-12.4913 v -6.7392 l 24.21374,-0.877 C 670.86462,1048.3947 685.86462,1048 690.8804,1048 h 9.11958 v 8.3041 c 0,7.9473 -0.22285,8.5079 -5.1853,13.044 l -5.18531,4.7399 -0.84059,13.956 c -0.46232,7.6758 -0.97893,66.0043 -1.14802,129.6188 l -0.30744,115.6629 h -20.66667 -20.66667 l 0.35214,-75.667 z m 183.09463,-377.89441 -0.11344,-91.56073 4.11918,-0.90472 c 7.8382,-1.72156 42.95741,2.24779 52.36475,5.91853 3.75627,1.46568 3.80231,1.61162 2.8807,9.1319 -3.30955,27.00564 -34.06956,117.23343 -53.96995,158.30907 l -5.1678,10.66667 -0.11346,-91.56072 z m -327.5753,86.76589 c -2.16034,-2.76621 -16.62276,-37.51393 -26.35542,-63.32214 -17.24968,-45.74113 -30.18271,-90.02551 -30.18271,-103.34957 0,-7.05942 -1.38294,-6.37096 20,-9.95634 14.47016,-2.42626 37.16439,-2.57165 38.05385,-0.24378 0.35026,0.91666 0.48143,41.509 0.2915,90.20517 -0.25167,64.52202 -0.74188,88.03077 -1.80722,86.66666 z M 829.33331,623.14424 v -91.52243 l 17.66667,0.7237 c 18.84743,0.77205 37.80405,4.01764 40.86388,6.99634 5.39894,5.25582 -11.1126,62.50183 -36.5322,126.65813 -11.83288,29.86492 -20.0448,48.66667 -21.25583,48.66667 -0.40838,0 -0.74252,-41.18509 -0.74252,-91.52241 z M 493.52987,692.99998 C 467.78744,632.30013 445.33332,563.52728 445.33332,545.38283 v -6.50243 l 9.66667,-2.20441 c 11.74498,-2.67836 34.4681,-4.63382 42.85789,-3.68816 l 6.14211,0.69229 v 89.15993 c 0,52.28468 -0.49886,89.15993 -1.20618,89.15993 -0.6634,0 -4.83217,-8.55 -9.26394,-19 z M 829.33331,364.93332 v -94.26666 h 15.76504 c 14.7384,0 36.82457,2.76937 44.07721,5.52683 3.00087,1.14092 3.13283,1.6476 2.3027,8.84173 -2.02407,17.54097 -16.85443,65.87088 -33.43657,108.96477 -9.48451,24.64848 -25.4543,61.94592 -27.32428,63.81591 -0.95658,0.95657 -1.3841,-27.73326 -1.3841,-92.88258 z m -335.08184,74.06667 c -11.87238,-27.16248 -24.5395,-60.22012 -34.35873,-89.66667 -11.17676,-33.51755 -15.84054,-51.09865 -16.82242,-63.41566 l -0.7506,-9.41568 7.17347,-1.5624 c 14.74845,-3.21225 26.24028,-4.36324 39.84013,-3.99023 l 14,0.38398 0.34247,92.33333 c 0.19368,52.2229 -0.165,92.33333 -0.8257,92.33333 -0.64248,0 -4.51186,-7.65 -8.59862,-17 z m 51.08185,-187.55761 c 0,-5.30791 1.40205,-7.42325 6.71753,-10.135 3.56544,-1.81895 5.50796,-3.95059 6.59122,-7.23291 3.7359,-11.3199 26.7679,-22.27413 59.35791,-28.23114 19.0326,-3.47892 79.64647,-3.55174 97.6477,-0.11734 16.47326,3.14291 33.69387,8.22426 41.81013,12.33707 8.42612,4.26985 16.69321,11.70099 17.76413,15.96787 0.46791,1.86428 3.16105,4.77326 6.18836,6.68432 5.0156,3.16621 7.92301,7.58372 7.92301,12.0382 0,1.6481 -16.90444,1.9132 -121.99999,1.9132 h -122 v -3.22428 z"
       id="path3756"
       inkscape:connector-curvature="0" />
  </g>
</svg>
